HIERARCHY
ROOT Root
{
	OFFSET 0.00000 0.00000 0.00000
	CHANNELS 6 Xposition Yposition Zposition Zrotation Xrotation Yrotation
	JOINT Hips
	{
		OFFSET 0 0 0	
		CHANNELS 3 Zrotation Xrotation Yrotation
		JOINT Spine
		{
			OFFSET 0 4 0	
			CHANNELS 3 Zrotation Xrotation Yrotation
			JOINT Spine1
			{
				OFFSET 0 19.4 0	
				CHANNELS 3 Zrotation Xrotation Yrotation
				JOINT Spine2
				{
					OFFSET 0 16.6 0	
					CHANNELS 3 Zrotation Xrotation Yrotation
					JOINT LeftCollar
					{
						OFFSET 0 10 0	
						CHANNELS 3 Zrotation Xrotation Yrotation
						JOINT LeftArm
						{
							OFFSET 15.6 -2 3	
							CHANNELS 3 Zrotation Xrotation Yrotation
							JOINT LeftForeArm
							{
								OFFSET 3.5 -27 -1	
								CHANNELS 3 Zrotation Xrotation Yrotation
								JOINT LeftHand
								{
									OFFSET 1 -27 1	
									CHANNELS 3 Zrotation Xrotation Yrotation
									End Site
									{
										OFFSET 0 -15 0
									}
								}
							}
						}
					}
					JOINT RightCollar
					{
						OFFSET 0 10 0	
						CHANNELS 3 Zrotation Xrotation Yrotation
						JOINT RightArm
						{
							OFFSET -15.6 -2 3	
							CHANNELS 3 Zrotation Xrotation Yrotation
							JOINT RightForeArm
							{
								OFFSET -3.5 -27 -1	
								CHANNELS 3 Zrotation Xrotation Yrotation
								JOINT RightHand
								{
									OFFSET -1 -27 1	
									CHANNELS 3 Zrotation Xrotation Yrotation
									End Site
									{
										OFFSET 0 -15 0
									}
								}
							}
						}
					}
					JOINT Neck
					{
						OFFSET 0 10 0	
						CHANNELS 3 Zrotation Xrotation Yrotation
						JOINT Head
						{
							OFFSET 0 12.7 3	
							CHANNELS 3 Zrotation Xrotation Yrotation
							End Site
							{
								OFFSET 0 12.7 3
							}
						}
					}
				}
			}
		}
	}
	JOINT LeftHip
	{
		OFFSET 0 0 0	
		CHANNELS 3 Zrotation Xrotation Yrotation
		JOINT LeftUpLeg
		{
			OFFSET 8.8 -6 0	
			CHANNELS 3 Zrotation Xrotation Yrotation
			JOINT LeftLeg
			{
				OFFSET 0 -39 2	
				CHANNELS 3 Zrotation Xrotation Yrotation
				JOINT LeftFoot
				{
					OFFSET 0 -43 -2	
					CHANNELS 3 Zrotation Xrotation Yrotation
					JOINT LeftFootFront
					{
						OFFSET 0 -7 8.5	
						CHANNELS 3 Zrotation Xrotation Yrotation
						End Site
						{
							OFFSET 0 -0.5 9
						}
					}
				}
				JOINT LeftHeel
				{
					OFFSET 0 -43 -2	
					CHANNELS 3 Zrotation Xrotation Yrotation
					End Site
					{
						OFFSET 0 -7.5 -5
					}
				}
			}
		}
	}
	JOINT RightHip
	{
		OFFSET 0 0 0	
		CHANNELS 3 Zrotation Xrotation Yrotation
		JOINT RightUpLeg
		{
			OFFSET -8.8 -6 0	
			CHANNELS 3 Zrotation Xrotation Yrotation
			JOINT RightLeg
			{
				OFFSET 0 -39 2	
				CHANNELS 3 Zrotation Xrotation Yrotation
				JOINT RightFoot
				{
					OFFSET 0 -43 -2	
					CHANNELS 3 Zrotation Xrotation Yrotation
					JOINT RightFootFront
					{
						OFFSET 0 -7 8.5	
						CHANNELS 3 Zrotation Xrotation Yrotation
						End Site
						{
							OFFSET 0 -0.5 9
						}
					}
				}
				JOINT RightHeel
				{
					OFFSET 0 -43 -2	
					CHANNELS 3 Zrotation Xrotation Yrotation
					End Site
					{
						OFFSET 0 -7.5 -5
					}
				}
			}
		}
	}
}
MOTION
Frames: 17
Frame Time: 0.008
0 95.481 0 -0 0 -0 -6.3159 -7.6452 -104.83 -3.8216 8.3707 -10.314 -3.8216 8.3707 -10.314 -3.3092 6.9875 -8.6909 -0 0 -0 19.048 -19.061 23.935 -8.5766 -21.744 -0.33042 -0 0 -0 -0 0 -0 -3.9923 -63.728 -6.9392 116.78 -17.079 53.498 -0 0 -0 2.3184 -8.2107 -2.9417 2.3184 -8.2107 -2.9417 -6.3159 -7.6452 -104.83 -25.481 -72.242 -9.2774 26.438 74.807 -15.767 -0 0 -0 -0 0 -0 -0 0 -0 -6.3159 -7.6452 -104.83 30.762 -62.327 16.37 -29.872 39.434 30.799 -0 0 -0 -0 0 -0 -0 0 -0 
0 95.481 0 -0 0 -0 -6.2972 -7.6561 -104.81 -3.8295 8.3589 -10.324 -3.8295 8.3589 -10.324 -3.3157 6.9775 -8.6993 -0 0 -0 19.069 -19.051 23.96 -8.5731 -21.729 -0.34281 -0 0 -0 -0 0 -0 -4.0557 -63.8 -7.0266 116.75 -17.097 53.521 -0 0 -0 2.3386 -8.2064 -2.9368 2.3386 -8.2064 -2.9368 -6.2972 -7.6561 -104.81 -25.549 -72.255 -9.35 26.444 74.807 -15.74 -0 0 -0 -0 0 -0 -0 0 -0 -6.2972 -7.6561 -104.81 30.75 -62.353 16.351 -29.871 39.43 30.806 -0 0 -0 -0 0 -0 -0 0 -0 
0 95.481 0 -0 0 -0 -6.2772 -7.6677 -104.79 -3.8375 8.346 -10.333 -3.8375 8.346 -10.333 -3.3224 6.9666 -8.7074 -0 0 -0 19.09 -19.039 23.982 -8.5698 -21.714 -0.35525 -0 0 -0 -0 0 -0 -4.1202 -63.868 -7.1157 116.73 -17.118 53.555 -0 0 -0 2.3598 -8.2023 -2.9341 2.3598 -8.2023 -2.9341 -6.2772 -7.6677 -104.79 -25.621 -72.269 -9.425 26.451 74.806 -15.713 -0 0 -0 -0 0 -0 -0 0 -0 -6.2772 -7.6677 -104.79 30.74 -62.38 16.334 -29.871 39.426 30.813 -0 0 -0 -0 0 -0 -0 0 -0 
0 95.481 0 -0 0 -0 -6.256 -7.6798 -104.78 -3.8457 8.3323 -10.343 -3.8457 8.3323 -10.343 -3.3292 6.9549 -8.7152 -0 0 -0 19.112 -19.025 24.003 -8.5668 -21.697 -0.3672 -0 0 -0 -0 0 -0 -4.1865 -63.935 -7.2077 116.7 -17.142 53.599 -0 0 -0 2.3821 -8.1985 -2.9338 2.3821 -8.1985 -2.9339 -6.256 -7.6798 -104.78 -25.694 -72.284 -9.5019 26.462 74.804 -15.687 -0 0 -0 -0 0 -0 -0 0 -0 -6.256 -7.6798 -104.78 30.729 -62.408 16.317 -29.872 39.421 30.82 -0 0 -0 -0 0 -0 -0 0 -0 
0 95.481 0 -0 0 -0 -6.2337 -7.6924 -104.76 -3.8541 8.318 -10.351 -3.8541 8.318 -10.351 -3.3362 6.9428 -8.7226 -0 0 -0 19.135 -19.01 24.02 -8.5639 -21.68 -0.37818 -0 0 -0 -0 0 -0 -4.2555 -63.999 -7.3038 116.67 -17.169 53.652 -0 0 -0 2.4056 -8.1952 -2.936 2.4056 -8.1952 -2.936 -6.2337 -7.6924 -104.76 -25.77 -72.3 -9.58 26.475 74.801 -15.662 -0 0 -0 -0 0 -0 -0 0 -0 -6.2337 -7.6924 -104.76 30.719 -62.436 16.3 -29.872 39.417 30.828 -0 0 -0 -0 0 -0 -0 0 -0 
0 95.481 0 -0 0 -0 -6.2108 -7.7054 -104.74 -3.8625 8.3037 -10.36 -3.8625 8.3037 -10.36 -3.3432 6.9306 -8.7297 -0 0 -0 19.159 -18.994 24.034 -8.5613 -21.662 -0.38787 -0 0 -0 -0 0 -0 -4.3284 -64.064 -7.405 116.65 -17.197 53.712 -0 0 -0 2.4303 -8.1928 -2.9404 2.4303 -8.1928 -2.9404 -6.2108 -7.7054 -104.74 -25.846 -72.317 -9.6588 26.492 74.797 -15.639 -0 0 -0 -0 0 -0 -0 0 -0 -6.2108 -7.7054 -104.74 30.71 -62.466 16.285 -29.873 39.412 30.834 -0 0 -0 -0 0 -0 -0 0 -0 
0 95.481 0 -0 0 -0 -6.1873 -7.7187 -104.73 -3.871 8.2897 -10.368 -3.871 8.2897 -10.368 -3.3502 6.9187 -8.7363 -0 0 -0 19.184 -18.979 24.046 -8.559 -21.644 -0.39616 -0 0 -0 -0 0 -0 -4.4063 -64.13 -7.5125 116.62 -17.226 53.774 -0 0 -0 2.4562 -8.1915 -2.9464 2.4562 -8.1915 -2.9464 -6.1873 -7.7187 -104.73 -25.924 -72.335 -9.7378 26.513 74.793 -15.617 -0 0 -0 -0 0 -0 -0 0 -0 -6.1873 -7.7187 -104.73 30.702 -62.495 16.271 -29.874 39.408 30.841 -0 0 -0 -0 0 -0 -0 0 -0 
0 95.481 0 -0 0 -0 -6.1638 -7.7321 -104.71 -3.8794 8.2763 -10.375 -3.8794 8.2763 -10.375 -3.3572 6.9073 -8.7427 -0 0 -0 19.21 -18.965 24.055 -8.5571 -21.626 -0.40317 -0 0 -0 -0 0 -0 -4.4901 -64.199 -7.6269 116.6 -17.256 53.835 -0 0 -0 2.4832 -8.1918 -2.9535 2.4832 -8.1918 -2.9535 -6.1638 -7.7321 -104.71 -26.002 -72.352 -9.817 26.536 74.789 -15.596 -0 0 -0 -0 0 -0 -0 0 -0 -6.1638 -7.7321 -104.71 30.694 -62.525 16.259 -29.875 39.404 30.846 -0 0 -0 -0 0 -0 -0 0 -0 
0 95.481 0 -0 0 -0 -6.1403 -7.7456 -104.69 -3.8879 8.2637 -10.382 -3.8879 8.2637 -10.382 -3.3642 6.8966 -8.7487 -0 0 -0 19.239 -18.952 24.063 -8.5558 -21.607 -0.40922 -0 0 -0 -0 0 -0 -4.5805 -64.271 -7.7488 116.59 -17.285 53.892 -0 0 -0 2.5116 -8.1939 -2.9608 2.5116 -8.1939 -2.9608 -6.1403 -7.7456 -104.69 -26.08 -72.37 -9.8963 26.56 74.784 -15.577 -0 0 -0 -0 0 -0 -0 0 -0 -6.1403 -7.7456 -104.69 30.686 -62.555 16.246 -29.876 39.401 30.851 -0 0 -0 -0 0 -0 -0 0 -0 
0 95.481 0 -0 0 -0 -6.117 -7.759 -104.68 -3.8963 8.2519 -10.389 -3.8963 8.2519 -10.389 -3.3712 6.8865 -8.7547 -0 0 -0 19.269 -18.941 24.069 -8.5552 -21.588 -0.41478 -0 0 -0 -0 0 -0 -4.6776 -64.349 -7.8784 116.58 -17.313 53.942 -0 0 -0 2.5411 -8.1979 -2.9676 2.5411 -8.1979 -2.9676 -6.117 -7.759 -104.68 -26.159 -72.387 -9.9757 26.586 74.78 -15.558 -0 0 -0 -0 0 -0 -0 0 -0 -6.117 -7.759 -104.68 30.678 -62.585 16.235 -29.877 39.398 30.856 -0 0 -0 -0 0 -0 -0 0 -0 
0 95.481 0 -0 0 -0 -6.0941 -7.772 -104.66 -3.9047 8.2407 -10.396 -3.9047 8.2407 -10.396 -3.3782 6.877 -8.7605 -0 0 -0 19.3 -18.93 24.074 -8.5553 -21.568 -0.42048 -0 0 -0 -0 0 -0 -4.781 -64.43 -8.0156 116.57 -17.338 53.983 -0 0 -0 2.5719 -8.2037 -2.9736 2.5719 -8.2037 -2.9736 -6.0941 -7.772 -104.66 -26.239 -72.404 -10.055 26.612 74.777 -15.54 -0 0 -0 -0 0 -0 -0 0 -0 -6.0941 -7.772 -104.66 30.67 -62.614 16.224 -29.878 39.395 30.86 -0 0 -0 -0 0 -0 -0 0 -0 
0 95.481 0 -0 0 -0 -6.0715 -7.7846 -104.64 -3.9131 8.2299 -10.403 -3.9131 8.2299 -10.403 -3.3852 6.8678 -8.7664 -0 0 -0 19.334 -18.919 24.078 -8.5562 -21.548 -0.42693 -0 0 -0 -0 0 -0 -4.8898 -64.514 -8.1598 116.57 -17.358 54.017 -0 0 -0 2.6037 -8.2112 -2.9784 2.6037 -8.2112 -2.9783 -6.0715 -7.7846 -104.64 -26.319 -72.42 -10.135 26.638 74.773 -15.523 -0 0 -0 -0 0 -0 -0 0 -0 -6.0715 -7.7846 -104.64 30.661 -62.644 16.212 -29.878 39.393 30.865 -0 0 -0 -0 0 -0 -0 0 -0 
0 95.481 0 -0 0 -0 -6.0493 -7.7965 -104.63 -3.9213 8.2193 -10.41 -3.9213 8.2193 -10.41 -3.392 6.8588 -8.7722 -0 0 -0 19.368 -18.909 24.083 -8.558 -21.526 -0.43478 -0 0 -0 -0 0 -0 -5.003 -64.6 -8.3103 116.57 -17.374 54.042 -0 0 -0 2.6363 -8.2202 -2.982 2.6363 -8.2202 -2.982 -6.0493 -7.7965 -104.63 -26.4 -72.436 -10.216 26.664 74.77 -15.506 -0 0 -0 -0 0 -0 -0 0 -0 -6.0493 -7.7965 -104.63 30.653 -62.673 16.201 -29.878 39.391 30.869 -0 0 -0 -0 0 -0 -0 0 -0 
0 95.481 0 -0 0 -0 -6.0272 -7.8076 -104.61 -3.9293 8.2086 -10.417 -3.9293 8.2086 -10.417 -3.3987 6.8496 -8.7779 -0 0 -0 19.402 -18.898 24.087 -8.5606 -21.503 -0.44458 -0 0 -0 -0 0 -0 -5.1193 -64.687 -8.4661 116.57 -17.384 54.059 -0 0 -0 2.6694 -8.2306 -2.9847 2.6694 -8.2306 -2.9847 -6.0272 -7.8076 -104.61 -26.481 -72.45 -10.296 26.689 74.768 -15.492 -0 0 -0 -0 0 -0 -0 0 -0 -6.0272 -7.8076 -104.61 30.644 -62.702 16.19 -29.878 39.39 30.872 -0 0 -0 -0 0 -0 -0 0 -0 
0 95.481 0 -0 0 -0 -6.005 -7.8179 -104.59 -3.9371 8.1975 -10.423 -3.9371 8.1975 -10.423 -3.4052 6.8402 -8.7837 -0 0 -0 19.437 -18.886 24.092 -8.5642 -21.478 -0.45677 -0 0 -0 -0 0 -0 -5.2375 -64.774 -8.6263 116.57 -17.388 54.068 -0 0 -0 2.7028 -8.2424 -2.9871 2.7028 -8.2424 -2.9871 -6.005 -7.8179 -104.59 -26.562 -72.465 -10.378 26.712 74.765 -15.478 -0 0 -0 -0 0 -0 -0 0 -0 -6.005 -7.8179 -104.59 30.635 -62.731 16.178 -29.876 39.389 30.876 -0 0 -0 -0 0 -0 -0 0 -0 
0 95.481 0 -0 0 -0 -5.9826 -7.8273 -104.57 -3.9445 8.1859 -10.43 -3.9445 8.1859 -10.43 -3.4113 6.8304 -8.7893 -0 0 -0 19.472 -18.873 24.097 -8.5687 -21.452 -0.47165 -0 0 -0 -0 0 -0 -5.3568 -64.859 -8.7897 116.57 -17.386 54.069 -0 0 -0 2.736 -8.2556 -2.9895 2.736 -8.2556 -2.9895 -5.9826 -7.8273 -104.57 -26.644 -72.478 -10.46 26.736 74.763 -15.466 -0 0 -0 -0 0 -0 -0 0 -0 -5.9826 -7.8273 -104.57 30.626 -62.76 16.168 -29.874 39.389 30.88 -0 0 -0 -0 0 -0 -0 0 -0 
0 95.481 0 -0 0 -0 -5.9596 -7.8361 -104.55 -3.9515 8.1738 -10.437 -3.9515 8.1738 -10.437 -3.4171 6.8201 -8.7949 -0 0 -0 19.506 -18.859 24.103 -8.5741 -21.425 -0.48937 -0 0 -0 -0 0 -0 -5.4766 -64.944 -8.9552 116.57 -17.381 54.063 -0 0 -0 2.7688 -8.2702 -2.9925 2.7688 -8.2702 -2.9925 -5.9596 -7.8361 -104.55 -26.727 -72.492 -10.543 26.759 74.76 -15.455 -0 0 -0 -0 0 -0 -0 0 -0 -5.9596 -7.8361 -104.55 30.617 -62.789 16.158 -29.871 39.389 30.884 -0 0 -0 -0 0 -0 -0 0 -0 
